<?xml version="1.0" standalone="no"?><!DOCTYPE svg PUBLIC "-//W3C//DTD SVG 1.1//EN" "http://www.w3.org/Graphics/SVG/1.1/DTD/svg11.dtd"><svg t="1547125942683" class="icon" style="" viewBox="0 0 1024 1024" version="1.1" xmlns="http://www.w3.org/2000/svg" p-id="1638" xmlns:xlink="http://www.w3.org/1999/xlink" width="60" height="60"><defs><style type="text/css"></style></defs><path d="M512 1024C229.671399 1024 0 794.294474 0 512 0 229.671399 229.671399 0 512 0c282.226221 0 512 229.671399 512 512 0 282.294474-229.773779 512-512 512z m0-926.534693c-228.545224 0-414.534693 185.955342-414.534693 414.534693s185.989469 414.500567 414.534693 414.500567S926.534693 740.579351 926.534693 512 740.545224 97.465307 512 97.465307z" p-id="1639" fill="#515151"></path><path d="M737.098447 560.732653H286.901553a48.6644 48.6644 0 0 1-48.732653-48.732653c0-26.959941 21.704459-48.732653 48.732653-48.732653h450.196894a48.698527 48.698527 0 1 1 0 97.465306z" p-id="1640" fill="#515151"></path><path d="M512 785.8311c-26.959941 0-48.732653-21.806839-48.732653-48.732653V286.867427a48.732653 48.732653 0 1 1 97.465306 0v450.23102c0 26.959941-21.806839 48.732653-48.732653 48.732653z" p-id="1641" fill="#515151"></path></svg>